<?xml version="1.0"?>
<svg version="1.1" xmlns="http://www.w3.org/2000/svg" width="24" height="24"
     viewBox="-2 -2 25.717484 25.717484">
    <path
        d="M5.669281 18.165359C5.669281 17.413528,5.370575 16.692581,4.838989 16.161011C4.307419 15.629425,3.586472 15.330719,2.834641 15.330719C2.082809 15.330719,1.361862 15.629425,0.830292 16.161011C0.298706 16.692581,0.000000 17.413528,0.000000 18.165359C0.000000 18.917191,0.298706 19.638138,0.830292 20.169708C1.361862 20.701294,2.082809 21.000000,2.834641 21.000000C3.586472 21.000000,4.307419 20.701294,4.838989 20.169708C5.370575 19.638138,5.669281 18.917191,5.669281 18.165359Z"
        style="fill: #000;stroke: none;"/>
    <path d="M2.834641 9.661438C7.531235 9.661438,11.338562 13.468765,11.338562 18.165359"
          style="stroke:#000; stroke-width: 3.750000;stroke-linecap: round;stroke-linejoin: round;stroke-miterlimit: 10.000000;fill: none;"/>
    <path d="M2.834641 1.157516C12.227814 1.157516,19.842484 8.772186,19.842484 18.165359"
          style="stroke:#000; stroke-width: 3.750000;stroke-linecap: round;stroke-linejoin: round;stroke-miterlimit: 10.000000;fill: none;"/>
</svg>
